<?xml version="1.0" encoding="utf-8"?>
<!-- Generator: Adobe Illustrator 16.0.0, SVG Export Plug-In . SVG Version: 6.00 Build 0)  -->
<!DOCTYPE svg PUBLIC "-//W3C//DTD SVG 1.1//EN" "http://www.w3.org/Graphics/SVG/1.1/DTD/svg11.dtd">
<svg version="1.1" id="Layer_1" xmlns="http://www.w3.org/2000/svg" xmlns:xlink="http://www.w3.org/1999/xlink" x="0px" y="0px"
	 width="229.75px" height="50.75px" viewBox="0 0 229.75 50.75" enable-background="new 0 0 229.75 50.75" xml:space="preserve">
<rect x="6.438" y="4.711" fill="#E48D2B" width="40.749" height="40.749"/>
<rect x="36.354" y="4.711" fill="#FFFFFF" width="0.456" height="41.231"/>
<rect x="29.014" y="4.469" fill="#FFFFFF" width="0.455" height="41.231"/>
<rect x="23.547" y="4.469" fill="#FFFFFF" width="0.456" height="41.231"/>
<rect x="18.789" y="4.469" fill="#FFFFFF" width="0.456" height="41.231"/>
<rect x="15.043" y="4.469" fill="#FFFFFF" width="0.456" height="41.231"/>
<rect x="12.006" y="4.469" fill="#FFFFFF" width="0.455" height="41.231"/>
<rect x="8.534" y="4.469" fill="#FFFFFF" width="0.456" height="41.231"/>
<rect x="5.942" y="15.157" fill="#FFFFFF" width="41.986" height="0.456"/>
<rect x="5.696" y="22.498" fill="#FFFFFF" width="41.986" height="0.456"/>
<rect x="5.696" y="27.964" fill="#FFFFFF" width="41.986" height="0.456"/>
<rect x="5.696" y="32.723" fill="#FFFFFF" width="41.986" height="0.456"/>
<rect x="5.696" y="36.469" fill="#FFFFFF" width="41.986" height="0.456"/>
<rect x="5.696" y="39.505" fill="#FFFFFF" width="41.986" height="0.456"/>
<rect x="5.696" y="42.978" fill="#FFFFFF" width="41.986" height="0.455"/>
<text transform="matrix(1 0 0 1 57.3955 30.8613)" fill="#E48D2B" font-family="'BebasNeue'" font-size="21.171" letter-spacing="1">Alsop Louie Partners</text>
</svg>
